<svg xmlns="http://www.w3.org/2000/svg" viewBox="0 0 800 800" width="800" height="800" role="img" aria-label="Smart 12V 10A Battery Charger (Auto Cut-Off)">
  <defs>
    <linearGradient id="bg" x1="0" y1="0" x2="1" y2="1">
      <stop offset="0%" stop-color="#f8fafc"/><stop offset="100%" stop-color="#e2e8f0"/>
    </linearGradient>
  </defs>
  <rect width="800" height="800" fill="url(#bg)"/>
  <g opacity="0.05" stroke="#0f172a" stroke-width="1">
    <line x1="0" y1="0" x2="0" y2="800"/><line x1="0" y1="0" x2="800" y2="0"/><line x1="56" y1="0" x2="56" y2="800"/><line x1="0" y1="56" x2="800" y2="56"/><line x1="112" y1="0" x2="112" y2="800"/><line x1="0" y1="112" x2="800" y2="112"/><line x1="168" y1="0" x2="168" y2="800"/><line x1="0" y1="168" x2="800" y2="168"/><line x1="224" y1="0" x2="224" y2="800"/><line x1="0" y1="224" x2="800" y2="224"/><line x1="280" y1="0" x2="280" y2="800"/><line x1="0" y1="280" x2="800" y2="280"/><line x1="336" y1="0" x2="336" y2="800"/><line x1="0" y1="336" x2="800" y2="336"/><line x1="392" y1="0" x2="392" y2="800"/><line x1="0" y1="392" x2="800" y2="392"/><line x1="448" y1="0" x2="448" y2="800"/><line x1="0" y1="448" x2="800" y2="448"/><line x1="504" y1="0" x2="504" y2="800"/><line x1="0" y1="504" x2="800" y2="504"/><line x1="560" y1="0" x2="560" y2="800"/><line x1="0" y1="560" x2="800" y2="560"/><line x1="616" y1="0" x2="616" y2="800"/><line x1="0" y1="616" x2="800" y2="616"/><line x1="672" y1="0" x2="672" y2="800"/><line x1="0" y1="672" x2="800" y2="672"/><line x1="728" y1="0" x2="728" y2="800"/><line x1="0" y1="728" x2="800" y2="728"/><line x1="784" y1="0" x2="784" y2="800"/><line x1="0" y1="784" x2="800" y2="784"/>
  </g>
  
    <rect x="230" y="250" width="340" height="240" rx="20" fill="#1e293b"/>
    <rect x="270" y="290" width="260" height="90" rx="10" fill="#0f172a"/>
    <circle cx="330" cy="335" r="18" fill="#25d366"/><circle cx="400" cy="335" r="18" fill="#ffc107"/><circle cx="470" cy="335" r="18" fill="#334155"/>
    <path d="M400 490 C400 560 300 560 300 620" stroke="#0f172a" stroke-width="18" fill="none" stroke-linecap="round"/>
    <path d="M440 490 C440 570 540 570 540 620" stroke="#ef4444" stroke-width="18" fill="none" stroke-linecap="round"/>
    <rect x="262" y="612" width="76" height="34" rx="8" fill="#0f172a"/><rect x="502" y="612" width="76" height="34" rx="8" fill="#ef4444"/>
  <text x="400" y="130" font-size="26" font-weight="800" fill="#25d366" text-anchor="middle" letter-spacing="4" font-family="'Plus Jakarta Sans',system-ui,sans-serif">GENERIC</text>
  <text x="400" y="600" font-size="34" font-weight="800" fill="#0f172a" text-anchor="middle" font-family="'Plus Jakarta Sans',system-ui,sans-serif">Smart 12V 10A Battery</text><text x="400" y="646" font-size="34" font-weight="800" fill="#0f172a" text-anchor="middle" font-family="'Plus Jakarta Sans',system-ui,sans-serif">Charger (Auto Cut-Off)</text>
  
  <text x="400" y="760" font-size="20" font-weight="700" fill="#94a3b8" text-anchor="middle" font-family="'Plus Jakarta Sans',system-ui,sans-serif">HRL-CHG-006</text>
</svg>